<svg id="visual" viewBox="0 0 2560 1440" width="2560" height="1440" xmlns="http://www.w3.org/2000/svg" xmlns:xlink="http://www.w3.org/1999/xlink" version="1.1"><g stroke-width="1" stroke-linejoin="bevel"><path d="M1284 652.1L1111.7 819.9L1279 833.9Z" fill="#fcfaf9" stroke="#fcfaf9"></path><path d="M1284 652.1L1090.7 584.1L1111.7 819.9Z" fill="#fcfaf8" stroke="#fcfaf8"></path><path d="M893.3 988.6L1101.7 979.6L1111.7 819.9Z" fill="#fdfcfb" stroke="#fdfcfb"></path><path d="M1111.7 819.9L1101.7 979.6L1279 833.9Z" fill="#fcfaf9" stroke="#fcfaf9"></path><path d="M1101.7 979.6L1299 995.6L1279 833.9Z" fill="#fefdfc" stroke="#fefdfc"></path><path d="M1279 833.9L1504.3 774.9L1284 652.1Z" fill="#fcfaf8" stroke="#fcfaf8"></path><path d="M1299 995.6L1504.3 774.9L1279 833.9Z" fill="#faf8f6" stroke="#faf8f6"></path><path d="M1090.7 584.1L890.3 592.1L1111.7 819.9Z" fill="#ffffff" stroke="#ffffff"></path><path d="M1266 389.4L1055.7 424.4L1090.7 584.1Z" fill="#faf8f6" stroke="#faf8f6"></path><path d="M1090.7 584.1L1055.7 424.4L890.3 592.1Z" fill="#fffefe" stroke="#fffefe"></path><path d="M1266 389.4L1090.7 584.1L1284 652.1Z" fill="#ffffff" stroke="#ffffff"></path><path d="M1536.3 561.1L1266 389.4L1284 652.1Z" fill="#fcfaf9" stroke="#fcfaf9"></path><path d="M890.3 592.1L833.3 768.9L1111.7 819.9Z" fill="#fcfaf9" stroke="#fcfaf9"></path><path d="M1504.3 774.9L1536.3 561.1L1284 652.1Z" fill="#fdfbfa" stroke="#fdfbfa"></path><path d="M833.3 768.9L893.3 988.6L1111.7 819.9Z" fill="#fefdfc" stroke="#fefdfc"></path><path d="M1300 1263.3L1506.3 1061.6L1299 995.6Z" fill="#fefdfc" stroke="#fefdfc"></path><path d="M1300 1263.3L1299 995.6L1101.7 979.6Z" fill="#fefdfd" stroke="#fefdfd"></path><path d="M1299 995.6L1506.3 1061.6L1504.3 774.9Z" fill="#fbf9f8" stroke="#fbf9f8"></path><path d="M1504.3 774.9L1680.7 645.1L1536.3 561.1Z" fill="#fcfaf8" stroke="#fcfaf8"></path><path d="M1089.7 208.7L867.3 415.4L1055.7 424.4Z" fill="#fbf9f8" stroke="#fbf9f8"></path><path d="M1055.7 424.4L867.3 415.4L890.3 592.1Z" fill="#fcfaf8" stroke="#fcfaf8"></path><path d="M612 640.1L624 787.9L833.3 768.9Z" fill="#fffefe" stroke="#fffefe"></path><path d="M1536.3 561.1L1518.3 390.4L1266 389.4Z" fill="#fbf9f8" stroke="#fbf9f8"></path><path d="M1483.3 179.7L1244 255.7L1266 389.4Z" fill="#fcfaf8" stroke="#fcfaf8"></path><path d="M1266 389.4L1244 255.7L1055.7 424.4Z" fill="#ffffff" stroke="#ffffff"></path><path d="M1695.7 822.9L1680.7 645.1L1504.3 774.9Z" fill="#fffefe" stroke="#fffefe"></path><path d="M1536.3 561.1L1727.7 456.4L1518.3 390.4Z" fill="#fdfbfa" stroke="#fdfbfa"></path><path d="M893.3 988.6L1029.7 1204.3L1101.7 979.6Z" fill="#fcfaf8" stroke="#fcfaf8"></path><path d="M1506.3 1061.6L1695.7 822.9L1504.3 774.9Z" fill="#fcfaf8" stroke="#fcfaf8"></path><path d="M1029.7 1204.3L1300 1263.3L1101.7 979.6Z" fill="#fcfaf9" stroke="#fcfaf9"></path><path d="M1244 255.7L1089.7 208.7L1055.7 424.4Z" fill="#fcfaf9" stroke="#fcfaf9"></path><path d="M1658.7 1190.3L1674.7 1069.6L1506.3 1061.6Z" fill="#fdfbfa" stroke="#fdfbfa"></path><path d="M1506.3 1061.6L1674.7 1069.6L1695.7 822.9Z" fill="#fcfaf9" stroke="#fcfaf9"></path><path d="M612 640.1L833.3 768.9L890.3 592.1Z" fill="#fefdfd" stroke="#fefdfd"></path><path d="M833.3 768.9L624 787.9L893.3 988.6Z" fill="#fffefe" stroke="#fffefe"></path><path d="M893.3 988.6L853.3 1248.3L1029.7 1204.3Z" fill="#fdfbfa" stroke="#fdfbfa"></path><path d="M1300 1263.3L1511.3 1243.3L1506.3 1061.6Z" fill="#fffefe" stroke="#fffefe"></path><path d="M1680.7 645.1L1727.7 456.4L1536.3 561.1Z" fill="#fdfcfb" stroke="#fdfcfb"></path><path d="M1518.3 390.4L1483.3 179.7L1266 389.4Z" fill="#fbf9f7" stroke="#fbf9f7"></path><path d="M1929 564.1L1727.7 456.4L1680.7 645.1Z" fill="#faf8f6" stroke="#faf8f6"></path><path d="M1929 564.1L1680.7 645.1L1967 774.9Z" fill="#fbf9f8" stroke="#fbf9f8"></path><path d="M621 413.4L890.3 592.1L867.3 415.4Z" fill="#fefdfc" stroke="#fefdfc"></path><path d="M621 413.4L612 640.1L890.3 592.1Z" fill="#faf8f6" stroke="#faf8f6"></path><path d="M594 1006.6L853.3 1248.3L893.3 988.6Z" fill="#fcfaf8" stroke="#fcfaf8"></path><path d="M1051.7 1440L1266 1440L1300 1263.3Z" fill="#fffefe" stroke="#fffefe"></path><path d="M1699.7 151.7L1483.3 179.7L1518.3 390.4Z" fill="#fefdfd" stroke="#fefdfd"></path><path d="M1244 255.7L1246 0L1089.7 208.7Z" fill="#fbf9f8" stroke="#fbf9f8"></path><path d="M1511.3 1243.3L1658.7 1190.3L1506.3 1061.6Z" fill="#fcfaf9" stroke="#fcfaf9"></path><path d="M887.3 0L815.3 212.7L1089.7 208.7Z" fill="#faf8f6" stroke="#faf8f6"></path><path d="M1089.7 208.7L815.3 212.7L867.3 415.4Z" fill="#fcfaf8" stroke="#fcfaf8"></path><path d="M449.7 865.9L594 1006.6L624 787.9Z" fill="#ffffff" stroke="#ffffff"></path><path d="M624 787.9L594 1006.6L893.3 988.6Z" fill="#fbf9f8" stroke="#fbf9f8"></path><path d="M677 257.7L621 413.4L867.3 415.4Z" fill="#fefdfd" stroke="#fefdfd"></path><path d="M612 640.1L463.7 655.1L624 787.9Z" fill="#faf8f6" stroke="#faf8f6"></path><path d="M1051.7 1440L1300 1263.3L1029.7 1204.3Z" fill="#fbf9f8" stroke="#fbf9f8"></path><path d="M1300 1263.3L1460.3 1440L1511.3 1243.3Z" fill="#fbf9f7" stroke="#fbf9f7"></path><path d="M1511.3 1243.3L1709.7 1440L1658.7 1190.3Z" fill="#fbf9f8" stroke="#fbf9f8"></path><path d="M815.3 212.7L677 257.7L867.3 415.4Z" fill="#ffffff" stroke="#ffffff"></path><path d="M853.3 1248.3L1051.7 1440L1029.7 1204.3Z" fill="#fbf9f8" stroke="#fbf9f8"></path><path d="M827.3 1440L1051.7 1440L853.3 1248.3Z" fill="#fcfaf8" stroke="#fcfaf8"></path><path d="M1483.3 179.7L1246 0L1244 255.7Z" fill="#fffefe" stroke="#fffefe"></path><path d="M815.3 212.7L681 0L677 257.7Z" fill="#fbf9f7" stroke="#fbf9f7"></path><path d="M377.7 358.4L463.7 655.1L621 413.4Z" fill="#ffffff" stroke="#ffffff"></path><path d="M621 413.4L463.7 655.1L612 640.1Z" fill="#fefdfd" stroke="#fefdfd"></path><path d="M1266 1440L1460.3 1440L1300 1263.3Z" fill="#ffffff" stroke="#ffffff"></path><path d="M1246 0L1115.7 0L1089.7 208.7Z" fill="#fefdfc" stroke="#fefdfc"></path><path d="M1967 774.9L1680.7 645.1L1695.7 822.9Z" fill="#fdfbfa" stroke="#fdfbfa"></path><path d="M1727.7 456.4L1699.7 151.7L1518.3 390.4Z" fill="#ffffff" stroke="#ffffff"></path><path d="M1886 1077.6L1695.7 822.9L1674.7 1069.6Z" fill="#fdfbfa" stroke="#fdfbfa"></path><path d="M1868 1224.3L1674.7 1069.6L1658.7 1190.3Z" fill="#fefdfd" stroke="#fefdfd"></path><path d="M1868 1224.3L1886 1077.6L1674.7 1069.6Z" fill="#ffffff" stroke="#ffffff"></path><path d="M463.7 655.1L449.7 865.9L624 787.9Z" fill="#fdfbfa" stroke="#fdfbfa"></path><path d="M1886 1077.6L1967 774.9L1695.7 822.9Z" fill="#fffefe" stroke="#fffefe"></path><path d="M1897 392.4L1699.7 151.7L1727.7 456.4Z" fill="#fefdfd" stroke="#fefdfd"></path><path d="M1483.3 179.7L1543.3 0L1246 0Z" fill="#fefdfc" stroke="#fefdfc"></path><path d="M1929 564.1L1897 392.4L1727.7 456.4Z" fill="#fdfbfa" stroke="#fdfbfa"></path><path d="M428.7 1251.3L608 1246.3L594 1006.6Z" fill="#fefdfc" stroke="#fefdfc"></path><path d="M594 1006.6L608 1246.3L853.3 1248.3Z" fill="#fdfcfb" stroke="#fdfcfb"></path><path d="M608 1246.3L827.3 1440L853.3 1248.3Z" fill="#ffffff" stroke="#ffffff"></path><path d="M1115.7 0L887.3 0L1089.7 208.7Z" fill="#fcfaf8" stroke="#fcfaf8"></path><path d="M1699.7 151.7L1543.3 0L1483.3 179.7Z" fill="#fdfcfb" stroke="#fdfcfb"></path><path d="M1709.7 1440L1868 1224.3L1658.7 1190.3Z" fill="#fdfcfb" stroke="#fdfcfb"></path><path d="M2174.3 774.9L2078.3 574.1L1967 774.9Z" fill="#fdfbfa" stroke="#fdfbfa"></path><path d="M262.3 804.9L405.7 974.6L449.7 865.9Z" fill="#fbf9f7" stroke="#fbf9f7"></path><path d="M449.7 865.9L405.7 974.6L594 1006.6Z" fill="#fcfaf8" stroke="#fcfaf8"></path><path d="M1460.3 1440L1709.7 1440L1511.3 1243.3Z" fill="#fcfaf8" stroke="#fcfaf8"></path><path d="M1699.7 151.7L1650.7 0L1543.3 0Z" fill="#fdfbfa" stroke="#fdfbfa"></path><path d="M1975 0L1650.7 0L1699.7 151.7Z" fill="#fefdfc" stroke="#fefdfc"></path><path d="M2082.3 196.7L1914 224.7L1897 392.4Z" fill="#fefdfd" stroke="#fefdfd"></path><path d="M1897 392.4L1914 224.7L1699.7 151.7Z" fill="#ffffff" stroke="#ffffff"></path><path d="M2105.3 429.4L1897 392.4L1929 564.1Z" fill="#fcfaf9" stroke="#fcfaf9"></path><path d="M2112.3 989.6L1967 774.9L1886 1077.6Z" fill="#fcfaf9" stroke="#fcfaf9"></path><path d="M1967 774.9L2078.3 574.1L1929 564.1Z" fill="#fffefe" stroke="#fffefe"></path><path d="M681 0L460.7 238.7L677 257.7Z" fill="#fffefe" stroke="#fffefe"></path><path d="M677 257.7L460.7 238.7L621 413.4Z" fill="#fcfaf9" stroke="#fcfaf9"></path><path d="M463.7 655.1L262.3 804.9L449.7 865.9Z" fill="#fbf9f7" stroke="#fbf9f7"></path><path d="M887.3 0L681 0L815.3 212.7Z" fill="#fbf9f7" stroke="#fbf9f7"></path><path d="M460.7 238.7L377.7 358.4L621 413.4Z" fill="#fefdfd" stroke="#fefdfd"></path><path d="M428.7 1251.3L597 1440L608 1246.3Z" fill="#fcfaf8" stroke="#fcfaf8"></path><path d="M608 1246.3L597 1440L827.3 1440Z" fill="#fbf9f8" stroke="#fbf9f8"></path><path d="M405.7 974.6L428.7 1251.3L594 1006.6Z" fill="#ffffff" stroke="#ffffff"></path><path d="M210.3 564.1L262.3 804.9L463.7 655.1Z" fill="#fefdfc" stroke="#fefdfc"></path><path d="M405.7 974.6L255.3 1214.3L428.7 1251.3Z" fill="#fefdfd" stroke="#fefdfd"></path><path d="M2153.3 1199.3L1886 1077.6L1868 1224.3Z" fill="#ffffff" stroke="#ffffff"></path><path d="M2153.3 1199.3L2112.3 989.6L1886 1077.6Z" fill="#ffffff" stroke="#ffffff"></path><path d="M2078.3 574.1L2105.3 429.4L1929 564.1Z" fill="#fcfaf8" stroke="#fcfaf8"></path><path d="M2296.7 581.1L2105.3 429.4L2078.3 574.1Z" fill="#fdfcfb" stroke="#fdfcfb"></path><path d="M2112.3 989.6L2174.3 774.9L1967 774.9Z" fill="#fefdfd" stroke="#fefdfd"></path><path d="M173.3 406.4L210.3 564.1L377.7 358.4Z" fill="#fbf9f8" stroke="#fbf9f8"></path><path d="M377.7 358.4L210.3 564.1L463.7 655.1Z" fill="#ffffff" stroke="#ffffff"></path><path d="M1709.7 1440L1960 1440L1868 1224.3Z" fill="#fefdfc" stroke="#fefdfc"></path><path d="M0 848.9L217.3 1048.6L262.3 804.9Z" fill="#fefdfd" stroke="#fefdfd"></path><path d="M262.3 804.9L217.3 1048.6L405.7 974.6Z" fill="#fcfaf8" stroke="#fcfaf8"></path><path d="M428.7 1251.3L428.7 1440L597 1440Z" fill="#fffefe" stroke="#fffefe"></path><path d="M2374.7 259.7L2082.3 196.7L2105.3 429.4Z" fill="#fdfbfa" stroke="#fdfbfa"></path><path d="M2105.3 429.4L2082.3 196.7L1897 392.4Z" fill="#fefdfd" stroke="#fefdfd"></path><path d="M1914 224.7L1975 0L1699.7 151.7Z" fill="#fefdfd" stroke="#fefdfd"></path><path d="M255.3 1214.3L428.7 1440L428.7 1251.3Z" fill="#fffefe" stroke="#fffefe"></path><path d="M1960 1440L2153.3 1199.3L1868 1224.3Z" fill="#fefdfc" stroke="#fefdfc"></path><path d="M2325.7 1037.6L2346.7 774.9L2174.3 774.9Z" fill="#fbf9f7" stroke="#fbf9f7"></path><path d="M217.3 1048.6L255.3 1214.3L405.7 974.6Z" fill="#fcfaf8" stroke="#fcfaf8"></path><path d="M681 0L431.7 0L460.7 238.7Z" fill="#fbf9f7" stroke="#fbf9f7"></path><path d="M160.3 151.7L173.3 406.4L377.7 358.4Z" fill="#fefdfc" stroke="#fefdfc"></path><path d="M2082.3 196.7L1975 0L1914 224.7Z" fill="#fbf9f8" stroke="#fbf9f8"></path><path d="M160.3 151.7L377.7 358.4L460.7 238.7Z" fill="#fbf9f8" stroke="#fbf9f8"></path><path d="M210.3 564.1L0 635.1L262.3 804.9Z" fill="#fdfbfa" stroke="#fdfbfa"></path><path d="M2346.7 774.9L2296.7 581.1L2174.3 774.9Z" fill="#fdfcfb" stroke="#fdfcfb"></path><path d="M2174.3 774.9L2296.7 581.1L2078.3 574.1Z" fill="#fcfaf9" stroke="#fcfaf9"></path><path d="M2082.3 196.7L2107.3 0L1975 0Z" fill="#fbf9f7" stroke="#fbf9f7"></path><path d="M2325.7 1037.6L2174.3 774.9L2112.3 989.6Z" fill="#fcfaf8" stroke="#fcfaf8"></path><path d="M2337.7 1227.3L2325.7 1037.6L2153.3 1199.3Z" fill="#fdfcfb" stroke="#fdfcfb"></path><path d="M2153.3 1199.3L2325.7 1037.6L2112.3 989.6Z" fill="#ffffff" stroke="#ffffff"></path><path d="M2365.7 0L2107.3 0L2082.3 196.7Z" fill="#fdfcfb" stroke="#fdfcfb"></path><path d="M1960 1440L2153.3 1440L2153.3 1199.3Z" fill="#fcfaf9" stroke="#fcfaf9"></path><path d="M2296.7 581.1L2350.7 435.4L2105.3 429.4Z" fill="#faf8f6" stroke="#faf8f6"></path><path d="M2560 597.1L2350.7 435.4L2296.7 581.1Z" fill="#fbf9f7" stroke="#fbf9f7"></path><path d="M431.7 0L160.3 151.7L460.7 238.7Z" fill="#fcfaf8" stroke="#fcfaf8"></path><path d="M0 366.4L0 635.1L173.3 406.4Z" fill="#fefdfc" stroke="#fefdfc"></path><path d="M173.3 406.4L0 635.1L210.3 564.1Z" fill="#fdfcfb" stroke="#fdfcfb"></path><path d="M217.3 1048.6L0 1285.3L255.3 1214.3Z" fill="#fcfaf8" stroke="#fcfaf8"></path><path d="M0 635.1L0 848.9L262.3 804.9Z" fill="#fcfaf9" stroke="#fcfaf9"></path><path d="M0 848.9L0 1017.6L217.3 1048.6Z" fill="#fdfbfa" stroke="#fdfbfa"></path><path d="M255.3 1214.3L181.3 1440L428.7 1440Z" fill="#fbf9f7" stroke="#fbf9f7"></path><path d="M2153.3 1440L2337.7 1227.3L2153.3 1199.3Z" fill="#ffffff" stroke="#ffffff"></path><path d="M2325.7 1037.6L2560 832.9L2346.7 774.9Z" fill="#fbf9f8" stroke="#fbf9f8"></path><path d="M0 1285.3L181.3 1440L255.3 1214.3Z" fill="#fefdfc" stroke="#fefdfc"></path><path d="M431.7 0L191.3 0L160.3 151.7Z" fill="#fbf9f8" stroke="#fbf9f8"></path><path d="M0 216.7L0 366.4L173.3 406.4Z" fill="#fcfaf9" stroke="#fcfaf9"></path><path d="M0 216.7L173.3 406.4L160.3 151.7Z" fill="#fefdfd" stroke="#fefdfd"></path><path d="M2560 378.4L2374.7 259.7L2350.7 435.4Z" fill="#ffffff" stroke="#ffffff"></path><path d="M2350.7 435.4L2374.7 259.7L2105.3 429.4Z" fill="#fbf9f7" stroke="#fbf9f7"></path><path d="M2560 597.1L2296.7 581.1L2346.7 774.9Z" fill="#fdfbfa" stroke="#fdfbfa"></path><path d="M0 0L0 216.7L160.3 151.7Z" fill="#fffefe" stroke="#fffefe"></path><path d="M0 1017.6L0 1285.3L217.3 1048.6Z" fill="#faf8f6" stroke="#faf8f6"></path><path d="M2560 1039.6L2560 832.9L2325.7 1037.6Z" fill="#fefdfc" stroke="#fefdfc"></path><path d="M2560 832.9L2560 597.1L2346.7 774.9Z" fill="#fefdfc" stroke="#fefdfc"></path><path d="M2153.3 1440L2380.7 1440L2337.7 1227.3Z" fill="#fefdfc" stroke="#fefdfc"></path><path d="M2560 1207.3L2560 1039.6L2325.7 1037.6Z" fill="#fefdfd" stroke="#fefdfd"></path><path d="M2560 188.7L2365.7 0L2374.7 259.7Z" fill="#fefdfd" stroke="#fefdfd"></path><path d="M2374.7 259.7L2365.7 0L2082.3 196.7Z" fill="#fdfcfb" stroke="#fdfcfb"></path><path d="M2560 1207.3L2325.7 1037.6L2337.7 1227.3Z" fill="#ffffff" stroke="#ffffff"></path><path d="M0 1285.3L0 1440L181.3 1440Z" fill="#fbf9f8" stroke="#fbf9f8"></path><path d="M2560 597.1L2560 378.4L2350.7 435.4Z" fill="#fdfbfa" stroke="#fdfbfa"></path><path d="M191.3 0L0 0L160.3 151.7Z" fill="#fffefe" stroke="#fffefe"></path><path d="M2380.7 1440L2560 1207.3L2337.7 1227.3Z" fill="#fdfbfa" stroke="#fdfbfa"></path><path d="M2560 378.4L2560 188.7L2374.7 259.7Z" fill="#fefdfc" stroke="#fefdfc"></path><path d="M2380.7 1440L2560 1440L2560 1207.3Z" fill="#fbf9f7" stroke="#fbf9f7"></path><path d="M2560 188.7L2560 0L2365.7 0Z" fill="#faf8f6" stroke="#faf8f6"></path></g></svg>