
      <svg xmlns="http://www.w3.org/2000/svg" version="1.1" width="1920" height="969" style="display: block;"><polygon stroke-linejoin="round" stroke-miterlimit="1" stroke-width="1" points="917,1114.5 349,1089.5 182,1121.5" style="fill:#1b0030;stroke:#1b0030;"></polygon><polygon stroke-linejoin="round" stroke-miterlimit="1" stroke-width="1" points="961,1121.5 917,1114.5 182,1121.5" style="fill:#290136;stroke:#290136;"></polygon><polygon stroke-linejoin="round" stroke-miterlimit="1" stroke-width="1" points="961,-155.5 640,-149.5 845,-146.5" style="fill:#1b0030;stroke:#1b0030;"></polygon><polygon stroke-linejoin="round" stroke-miterlimit="1" stroke-width="1" points="961,-155.5 515,-155.5 640,-149.5" style="fill:#1b0030;stroke:#1b0030;"></polygon><polygon stroke-linejoin="round" stroke-miterlimit="1" stroke-width="1" points="2042,955.5 1977,846.5 1910,949.5" style="fill:#260134;stroke:#260134;"></polygon><polygon stroke-linejoin="round" stroke-miterlimit="1" stroke-width="1" points="2042,703.5 2036,622.5 1770,695.5" style="fill:#260135;stroke:#260135;"></polygon><polygon stroke-linejoin="round" stroke-miterlimit="1" stroke-width="1" points="2042,703.5 2042,612.5 2036,622.5" style="fill:#1b0030;stroke:#1b0030;"></polygon><polygon stroke-linejoin="round" stroke-miterlimit="1" stroke-width="1" points="2042,724.5 2042,703.5 1770,695.5" style="fill:#230133;stroke:#230133;"></polygon><polygon stroke-linejoin="round" stroke-miterlimit="1" stroke-width="1" points="2042,724.5 1770,695.5 1977,846.5" style="fill:#290136;stroke:#290136;"></polygon><polygon stroke-linejoin="round" stroke-miterlimit="1" stroke-width="1" points="2042,724.5 1977,846.5 2042,955.5" style="fill:#1d0130;stroke:#1d0130;"></polygon><polygon stroke-linejoin="round" stroke-miterlimit="1" stroke-width="1" points="2042,981.5 2042,955.5 1910,949.5" style="fill:#2f0139;stroke:#2f0139;"></polygon><polygon stroke-linejoin="round" stroke-miterlimit="1" stroke-width="1" points="2042,981.5 1910,949.5 1861,1056.5" style="fill:#200132;stroke:#200132;"></polygon><polygon stroke-linejoin="round" stroke-miterlimit="1" stroke-width="1" points="2042,46.5 1932,-114.5 1893,-95.5" style="fill:#1b0030;stroke:#1b0030;"></polygon><polygon stroke-linejoin="round" stroke-miterlimit="1" stroke-width="1" points="2042,46.5 1752,179.5 1986,208.5" style="fill:#220133;stroke:#220133;"></polygon><polygon stroke-linejoin="round" stroke-miterlimit="1" stroke-width="1" points="2042,46.5 1893,-95.5 1752,179.5" style="fill:#240133;stroke:#240133;"></polygon><polygon stroke-linejoin="round" stroke-miterlimit="1" stroke-width="1" points="2042,46.5 2042,-144.5 1932,-114.5" style="fill:#1b0030;stroke:#1b0030;"></polygon><polygon stroke-linejoin="round" stroke-miterlimit="1" stroke-width="1" points="2042,1121.5 1859,1069.5 1788,1121.5" style="fill:#2d0138;stroke:#2d0138;"></polygon><polygon stroke-linejoin="round" stroke-miterlimit="1" stroke-width="1" points="2042,1121.5 2042,981.5 1861,1056.5" style="fill:#1e0131;stroke:#1e0131;"></polygon><polygon stroke-linejoin="round" stroke-miterlimit="1" stroke-width="1" points="2042,1121.5 1861,1056.5 1859,1069.5" style="fill:#1b0030;stroke:#1b0030;"></polygon><polygon stroke-linejoin="round" stroke-miterlimit="1" stroke-width="1" points="2042,483.5 1986,208.5 1750,330.5" style="fill:#260134;stroke:#260134;"></polygon><polygon stroke-linejoin="round" stroke-miterlimit="1" stroke-width="1" points="2042,483.5 1750,330.5 1765,472.5" style="fill:#200132;stroke:#200132;"></polygon><polygon stroke-linejoin="round" stroke-miterlimit="1" stroke-width="1" points="2042,483.5 2036,622.5 2042,612.5" style="fill:#7d035d;stroke:#7d035d;"></polygon><polygon stroke-linejoin="round" stroke-miterlimit="1" stroke-width="1" points="2042,483.5 1771,583.5 2036,622.5" style="fill:#230133;stroke:#230133;"></polygon><polygon stroke-linejoin="round" stroke-miterlimit="1" stroke-width="1" points="2042,483.5 1765,472.5 1771,583.5" style="fill:#260134;stroke:#260134;"></polygon><polygon stroke-linejoin="round" stroke-miterlimit="1" stroke-width="1" points="2042,483.5 2042,46.5 1986,208.5" style="fill:#1c0130;stroke:#1c0130;"></polygon><polygon stroke-linejoin="round" stroke-miterlimit="1" stroke-width="1" points="2042,-155.5 1932,-114.5 2042,-144.5" style="fill:#34013b;stroke:#34013b;"></polygon><polygon stroke-linejoin="round" stroke-miterlimit="1" stroke-width="1" points="2042,-155.5 1887,-155.5 1932,-114.5" style="fill:#1e0131;stroke:#1e0131;"></polygon><polygon stroke-linejoin="round" stroke-miterlimit="1" stroke-width="1" points="1567,1121.5 1381,1069.5 961,1121.5" style="fill:#260134;stroke:#260134;"></polygon><polygon stroke-linejoin="round" stroke-miterlimit="1" stroke-width="1" points="2036,622.5 1771,583.5 1770,695.5" style="fill:#230133;stroke:#230133;"></polygon><polygon stroke-linejoin="round" stroke-miterlimit="1" stroke-width="1" points="1986,208.5 1752,179.5 1750,330.5" style="fill:#230133;stroke:#230133;"></polygon><polygon stroke-linejoin="round" stroke-miterlimit="1" stroke-width="1" points="1977,846.5 1780,912.5 1910,949.5" style="fill:#1e0131;stroke:#1e0131;"></polygon><polygon stroke-linejoin="round" stroke-miterlimit="1" stroke-width="1" points="1977,846.5 1770,695.5 1780,912.5" style="fill:#230133;stroke:#230133;"></polygon><polygon stroke-linejoin="round" stroke-miterlimit="1" stroke-width="1" points="1893,-95.5 1662,33.5 1752,179.5" style="fill:#270135;stroke:#270135;"></polygon><polygon stroke-linejoin="round" stroke-miterlimit="1" stroke-width="1" points="1932,-114.5 1887,-155.5 1893,-95.5" style="fill:#1b0030;stroke:#1b0030;"></polygon><polygon stroke-linejoin="round" stroke-miterlimit="1" stroke-width="1" points="1893,-95.5 1763,-155.5 1662,33.5" style="fill:#230133;stroke:#230133;"></polygon><polygon stroke-linejoin="round" stroke-miterlimit="1" stroke-width="1" points="1910,949.5 1782,947.5 1861,1056.5" style="fill:#1b0030;stroke:#1b0030;"></polygon><polygon stroke-linejoin="round" stroke-miterlimit="1" stroke-width="1" points="1910,949.5 1780,912.5 1782,947.5" style="fill:#2a0136;stroke:#2a0136;"></polygon><polygon stroke-linejoin="round" stroke-miterlimit="1" stroke-width="1" points="1893,-95.5 1887,-155.5 1763,-155.5" style="fill:#3b013e;stroke:#3b013e;"></polygon><polygon stroke-linejoin="round" stroke-miterlimit="1" stroke-width="1" points="1763,-155.5 1679,-130.5 1662,33.5" style="fill:#290136;stroke:#290136;"></polygon><polygon stroke-linejoin="round" stroke-miterlimit="1" stroke-width="1" points="1859,1069.5 1780,1059.5 1788,1121.5" style="fill:#1b0030;stroke:#1b0030;"></polygon><polygon stroke-linejoin="round" stroke-miterlimit="1" stroke-width="1" points="1861,1056.5 1780,1059.5 1859,1069.5" style="fill:#35013b;stroke:#35013b;"></polygon><polygon stroke-linejoin="round" stroke-miterlimit="1" stroke-width="1" points="1861,1056.5 1782,947.5 1780,1059.5" style="fill:#250134;stroke:#250134;"></polygon><polygon stroke-linejoin="round" stroke-miterlimit="1" stroke-width="1" points="1752,179.5 1645,187.5 1750,330.5" style="fill:#2b0137;stroke:#2b0137;"></polygon><polygon stroke-linejoin="round" stroke-miterlimit="1" stroke-width="1" points="1752,179.5 1662,33.5 1652,171.5" style="fill:#2d0138;stroke:#2d0138;"></polygon><polygon stroke-linejoin="round" stroke-miterlimit="1" stroke-width="1" points="1763,-155.5 1623,-155.5 1679,-130.5" style="fill:#260135;stroke:#260135;"></polygon><polygon stroke-linejoin="round" stroke-miterlimit="1" stroke-width="1" points="1780,912.5 1770,695.5 1628,790.5" style="fill:#2e0138;stroke:#2e0138;"></polygon><polygon stroke-linejoin="round" stroke-miterlimit="1" stroke-width="1" points="1780,912.5 1628,790.5 1654,915.5" style="fill:#2b0137;stroke:#2b0137;"></polygon><polygon stroke-linejoin="round" stroke-miterlimit="1" stroke-width="1" points="1782,947.5 1725,987.5 1780,1059.5" style="fill:#280135;stroke:#280135;"></polygon><polygon stroke-linejoin="round" stroke-miterlimit="1" stroke-width="1" points="1788,1121.5 1780,1059.5 1603,1121.5" style="fill:#200132;stroke:#200132;"></polygon><polygon stroke-linejoin="round" stroke-miterlimit="1" stroke-width="1" points="1771,583.5 1579,687.5 1770,695.5" style="fill:#230133;stroke:#230133;"></polygon><polygon stroke-linejoin="round" stroke-miterlimit="1" stroke-width="1" points="1782,947.5 1780,912.5 1725,987.5" style="fill:#3f0140;stroke:#3f0140;"></polygon><polygon stroke-linejoin="round" stroke-miterlimit="1" stroke-width="1" points="1780,1059.5 1725,987.5 1603,1121.5" style="fill:#1b0030;stroke:#1b0030;"></polygon><polygon stroke-linejoin="round" stroke-miterlimit="1" stroke-width="1" points="1780,912.5 1654,915.5 1725,987.5" style="fill:#250134;stroke:#250134;"></polygon><polygon stroke-linejoin="round" stroke-miterlimit="1" stroke-width="1" points="1765,472.5 1750,330.5 1418,493.5" style="fill:#270135;stroke:#270135;"></polygon><polygon stroke-linejoin="round" stroke-miterlimit="1" stroke-width="1" points="1771,583.5 1765,472.5 1579,687.5" style="fill:#31013a;stroke:#31013a;"></polygon><polygon stroke-linejoin="round" stroke-miterlimit="1" stroke-width="1" points="1770,695.5 1579,687.5 1628,790.5" style="fill:#250134;stroke:#250134;"></polygon><polygon stroke-linejoin="round" stroke-miterlimit="1" stroke-width="1" points="1765,472.5 1418,493.5 1579,687.5" style="fill:#290136;stroke:#290136;"></polygon><polygon stroke-linejoin="round" stroke-miterlimit="1" stroke-width="1" points="1579,687.5 1418,493.5 1438,598.5" style="fill:#34013b;stroke:#34013b;"></polygon><polygon stroke-linejoin="round" stroke-miterlimit="1" stroke-width="1" points="1750,330.5 1582,181.5 1418,493.5" style="fill:#2a0136;stroke:#2a0136;"></polygon><polygon stroke-linejoin="round" stroke-miterlimit="1" stroke-width="1" points="1752,179.5 1652,171.5 1645,187.5" style="fill:#1b0030;stroke:#1b0030;"></polygon><polygon stroke-linejoin="round" stroke-miterlimit="1" stroke-width="1" points="1750,330.5 1645,187.5 1582,181.5" style="fill:#210132;stroke:#210132;"></polygon><polygon stroke-linejoin="round" stroke-miterlimit="1" stroke-width="1" points="1582,181.5 1375,319.5 1418,493.5" style="fill:#260135;stroke:#260135;"></polygon><polygon stroke-linejoin="round" stroke-miterlimit="1" stroke-width="1" points="1725,987.5 1654,915.5 1603,1121.5" style="fill:#220133;stroke:#220133;"></polygon><polygon stroke-linejoin="round" stroke-miterlimit="1" stroke-width="1" points="1606,-155.5 961,-155.5 1248,-16.5" style="fill:#2c0137;stroke:#2c0137;"></polygon><polygon stroke-linejoin="round" stroke-miterlimit="1" stroke-width="1" points="1654,915.5 1567,1121.5 1603,1121.5" style="fill:#1b0030;stroke:#1b0030;"></polygon><polygon stroke-linejoin="round" stroke-miterlimit="1" stroke-width="1" points="1654,915.5 1560,882.5 1567,1121.5" style="fill:#240134;stroke:#240134;"></polygon><polygon stroke-linejoin="round" stroke-miterlimit="1" stroke-width="1" points="1654,915.5 1628,790.5 1560,882.5" style="fill:#2c0137;stroke:#2c0137;"></polygon><polygon stroke-linejoin="round" stroke-miterlimit="1" stroke-width="1" points="1662,33.5 1606,-155.5 1444,7.5" style="fill:#200131;stroke:#200131;"></polygon><polygon stroke-linejoin="round" stroke-miterlimit="1" stroke-width="1" points="1662,33.5 1582,181.5 1652,171.5" style="fill:#2b0137;stroke:#2b0137;"></polygon><polygon stroke-linejoin="round" stroke-miterlimit="1" stroke-width="1" points="1679,-130.5 1606,-155.5 1662,33.5" style="fill:#1e0131;stroke:#1e0131;"></polygon><polygon stroke-linejoin="round" stroke-miterlimit="1" stroke-width="1" points="1679,-130.5 1623,-155.5 1606,-155.5" style="fill:#1b0030;stroke:#1b0030;"></polygon><polygon stroke-linejoin="round" stroke-miterlimit="1" stroke-width="1" points="1662,33.5 1445,42.5 1477,99.5" style="fill:#2d0138;stroke:#2d0138;"></polygon><polygon stroke-linejoin="round" stroke-miterlimit="1" stroke-width="1" points="1662,33.5 1444,7.5 1445,42.5" style="fill:#1b0030;stroke:#1b0030;"></polygon><polygon stroke-linejoin="round" stroke-miterlimit="1" stroke-width="1" points="1662,33.5 1477,99.5 1582,181.5" style="fill:#210132;stroke:#210132;"></polygon><polygon stroke-linejoin="round" stroke-miterlimit="1" stroke-width="1" points="1652,171.5 1582,181.5 1645,187.5" style="fill:#300139;stroke:#300139;"></polygon><polygon stroke-linejoin="round" stroke-miterlimit="1" stroke-width="1" points="1567,1121.5 1560,882.5 1381,1069.5" style="fill:#240134;stroke:#240134;"></polygon><polygon stroke-linejoin="round" stroke-miterlimit="1" stroke-width="1" points="1628,790.5 1579,687.5 1560,882.5" style="fill:#300139;stroke:#300139;"></polygon><polygon stroke-linejoin="round" stroke-miterlimit="1" stroke-width="1" points="1606,-155.5 1248,-16.5 1444,7.5" style="fill:#1b0030;stroke:#1b0030;"></polygon><polygon stroke-linejoin="round" stroke-miterlimit="1" stroke-width="1" points="1579,687.5 1312,708.5 1560,882.5" style="fill:#280135;stroke:#280135;"></polygon><polygon stroke-linejoin="round" stroke-miterlimit="1" stroke-width="1" points="1579,687.5 1438,598.5 1312,708.5" style="fill:#33013b;stroke:#33013b;"></polygon><polygon stroke-linejoin="round" stroke-miterlimit="1" stroke-width="1" points="1582,181.5 1460,107.5 1406,144.5" style="fill:#2b0137;stroke:#2b0137;"></polygon><polygon stroke-linejoin="round" stroke-miterlimit="1" stroke-width="1" points="1582,181.5 1406,144.5 1375,319.5" style="fill:#2d0138;stroke:#2d0138;"></polygon><polygon stroke-linejoin="round" stroke-miterlimit="1" stroke-width="1" points="1582,181.5 1477,99.5 1460,107.5" style="fill:#1b0030;stroke:#1b0030;"></polygon><polygon stroke-linejoin="round" stroke-miterlimit="1" stroke-width="1" points="1560,882.5 1312,708.5 1267,882.5" style="fill:#2a0137;stroke:#2a0137;"></polygon><polygon stroke-linejoin="round" stroke-miterlimit="1" stroke-width="1" points="1560,882.5 1267,882.5 1381,1069.5" style="fill:#2c0137;stroke:#2c0137;"></polygon><polygon stroke-linejoin="round" stroke-miterlimit="1" stroke-width="1" points="1381,1069.5 1123,1009.5 961,1121.5" style="fill:#31013a;stroke:#31013a;"></polygon><polygon stroke-linejoin="round" stroke-miterlimit="1" stroke-width="1" points="1477,99.5 1445,42.5 1460,107.5" style="fill:#1b0030;stroke:#1b0030;"></polygon><polygon stroke-linejoin="round" stroke-miterlimit="1" stroke-width="1" points="1418,493.5 1375,319.5 1342,323.5" style="fill:#2b0137;stroke:#2b0137;"></polygon><polygon stroke-linejoin="round" stroke-miterlimit="1" stroke-width="1" points="1460,107.5 1445,42.5 1398,103.5" style="fill:#270135;stroke:#270135;"></polygon><polygon stroke-linejoin="round" stroke-miterlimit="1" stroke-width="1" points="1460,107.5 1398,103.5 1406,144.5" style="fill:#290136;stroke:#290136;"></polygon><polygon stroke-linejoin="round" stroke-miterlimit="1" stroke-width="1" points="1248,-16.5 961,-155.5 1044,-58.5" style="fill:#220133;stroke:#220133;"></polygon><polygon stroke-linejoin="round" stroke-miterlimit="1" stroke-width="1" points="1406,144.5 1342,323.5 1375,319.5" style="fill:#31013a;stroke:#31013a;"></polygon><polygon stroke-linejoin="round" stroke-miterlimit="1" stroke-width="1" points="1438,598.5 1418,493.5 1318,553.5" style="fill:#3a013e;stroke:#3a013e;"></polygon><polygon stroke-linejoin="round" stroke-miterlimit="1" stroke-width="1" points="1445,42.5 1444,7.5 1398,103.5" style="fill:#2f0139;stroke:#2f0139;"></polygon><polygon stroke-linejoin="round" stroke-miterlimit="1" stroke-width="1" points="1438,598.5 1318,553.5 1312,708.5" style="fill:#39013d;stroke:#39013d;"></polygon><polygon stroke-linejoin="round" stroke-miterlimit="1" stroke-width="1" points="1444,7.5 1248,-16.5 1398,103.5" style="fill:#1d0130;stroke:#1d0130;"></polygon><polygon stroke-linejoin="round" stroke-miterlimit="1" stroke-width="1" points="1406,144.5 1155,234.5 1342,323.5" style="fill:#220132;stroke:#220132;"></polygon><polygon stroke-linejoin="round" stroke-miterlimit="1" stroke-width="1" points="1418,493.5 1342,323.5 1318,553.5" style="fill:#2b0137;stroke:#2b0137;"></polygon><polygon stroke-linejoin="round" stroke-miterlimit="1" stroke-width="1" points="1406,144.5 1398,103.5 1155,234.5" style="fill:#300139;stroke:#300139;"></polygon><polygon stroke-linejoin="round" stroke-miterlimit="1" stroke-width="1" points="1312,708.5 1220,814.5 1267,882.5" style="fill:#2c0138;stroke:#2c0138;"></polygon><polygon stroke-linejoin="round" stroke-miterlimit="1" stroke-width="1" points="1398,103.5 1248,-16.5 1155,234.5" style="fill:#230133;stroke:#230133;"></polygon><polygon stroke-linejoin="round" stroke-miterlimit="1" stroke-width="1" points="1342,323.5 1127,338.5 1318,553.5" style="fill:#35013c;stroke:#35013c;"></polygon><polygon stroke-linejoin="round" stroke-miterlimit="1" stroke-width="1" points="1381,1069.5 1267,882.5 1123,1009.5" style="fill:#230133;stroke:#230133;"></polygon><polygon stroke-linejoin="round" stroke-miterlimit="1" stroke-width="1" points="1318,553.5 1127,338.5 1180,572.5" style="fill:#420142;stroke:#420142;"></polygon><polygon stroke-linejoin="round" stroke-miterlimit="1" stroke-width="1" points="1180,572.5 1127,338.5 1116,532.5" style="fill:#3d013f;stroke:#3d013f;"></polygon><polygon stroke-linejoin="round" stroke-miterlimit="1" stroke-width="1" points="1318,553.5 1180,572.5 1312,708.5" style="fill:#5e024f;stroke:#5e024f;"></polygon><polygon stroke-linejoin="round" stroke-miterlimit="1" stroke-width="1" points="1342,323.5 1155,234.5 1127,338.5" style="fill:#33013b;stroke:#33013b;"></polygon><polygon stroke-linejoin="round" stroke-miterlimit="1" stroke-width="1" points="1248,-16.5 1074,130.5 1155,234.5" style="fill:#2c0137;stroke:#2c0137;"></polygon><polygon stroke-linejoin="round" stroke-miterlimit="1" stroke-width="1" points="1312,708.5 1180,572.5 1126,613.5" style="fill:#740359;stroke:#740359;"></polygon><polygon stroke-linejoin="round" stroke-miterlimit="1" stroke-width="1" points="1312,708.5 1126,613.5 1220,814.5" style="fill:#4d0247;stroke:#4d0247;"></polygon><polygon stroke-linejoin="round" stroke-miterlimit="1" stroke-width="1" points="1267,882.5 1220,814.5 1123,1009.5" style="fill:#35013b;stroke:#35013b;"></polygon><polygon stroke-linejoin="round" stroke-miterlimit="1" stroke-width="1" points="1248,-16.5 1044,-58.5 1074,130.5" style="fill:#2e0138;stroke:#2e0138;"></polygon><polygon stroke-linejoin="round" stroke-miterlimit="1" stroke-width="1" points="1220,814.5 909,915.5 1123,1009.5" style="fill:#260135;stroke:#260135;"></polygon><polygon stroke-linejoin="round" stroke-miterlimit="1" stroke-width="1" points="1220,814.5 1126,613.5 869,779.5" style="fill:#35013c;stroke:#35013c;"></polygon><polygon stroke-linejoin="round" stroke-miterlimit="1" stroke-width="1" points="1220,814.5 869,779.5 909,915.5" style="fill:#260134;stroke:#260134;"></polygon><polygon stroke-linejoin="round" stroke-miterlimit="1" stroke-width="1" points="1116,532.5 1015,474.5 1052,519.5" style="fill:#2e0138;stroke:#2e0138;"></polygon><polygon stroke-linejoin="round" stroke-miterlimit="1" stroke-width="1" points="1126,613.5 925,616.5 869,779.5" style="fill:#3a013e;stroke:#3a013e;"></polygon><polygon stroke-linejoin="round" stroke-miterlimit="1" stroke-width="1" points="1127,338.5 1015,474.5 1116,532.5" style="fill:#3d013f;stroke:#3d013f;"></polygon><polygon stroke-linejoin="round" stroke-miterlimit="1" stroke-width="1" points="1180,572.5 1116,532.5 1126,613.5" style="fill:#4c0247;stroke:#4c0247;"></polygon><polygon stroke-linejoin="round" stroke-miterlimit="1" stroke-width="1" points="1074,130.5 1044,-58.5 1015,109.5" style="fill:#2d0138;stroke:#2d0138;"></polygon><polygon stroke-linejoin="round" stroke-miterlimit="1" stroke-width="1" points="1155,234.5 947,168.5 1127,338.5" style="fill:#2e0138;stroke:#2e0138;"></polygon><polygon stroke-linejoin="round" stroke-miterlimit="1" stroke-width="1" points="1155,234.5 1074,130.5 947,168.5" style="fill:#260135;stroke:#260135;"></polygon><polygon stroke-linejoin="round" stroke-miterlimit="1" stroke-width="1" points="1126,613.5 1116,532.5 1052,519.5" style="fill:#520249;stroke:#520249;"></polygon><polygon stroke-linejoin="round" stroke-miterlimit="1" stroke-width="1" points="1127,338.5 892,397.5 1015,474.5" style="fill:#33013a;stroke:#33013a;"></polygon><polygon stroke-linejoin="round" stroke-miterlimit="1" stroke-width="1" points="1127,338.5 896,267.5 892,397.5" style="fill:#32013a;stroke:#32013a;"></polygon><polygon stroke-linejoin="round" stroke-miterlimit="1" stroke-width="1" points="1127,338.5 947,168.5 896,267.5" style="fill:#31013a;stroke:#31013a;"></polygon><polygon stroke-linejoin="round" stroke-miterlimit="1" stroke-width="1" points="1126,613.5 1052,519.5 925,616.5" style="fill:#3f0140;stroke:#3f0140;"></polygon><polygon stroke-linejoin="round" stroke-miterlimit="1" stroke-width="1" points="1123,1009.5 909,915.5 961,1121.5" style="fill:#2a0136;stroke:#2a0136;"></polygon><polygon stroke-linejoin="round" stroke-miterlimit="1" stroke-width="1" points="1015,109.5 1009,-60.5 927,29.5" style="fill:#250134;stroke:#250134;"></polygon><polygon stroke-linejoin="round" stroke-miterlimit="1" stroke-width="1" points="1015,474.5 892,397.5 977,479.5" style="fill:#2e0138;stroke:#2e0138;"></polygon><polygon stroke-linejoin="round" stroke-miterlimit="1" stroke-width="1" points="1044,-58.5 961,-155.5 1009,-60.5" style="fill:#1b0030;stroke:#1b0030;"></polygon><polygon stroke-linejoin="round" stroke-miterlimit="1" stroke-width="1" points="1044,-58.5 1009,-60.5 1015,109.5" style="fill:#1b0030;stroke:#1b0030;"></polygon><polygon stroke-linejoin="round" stroke-miterlimit="1" stroke-width="1" points="1074,130.5 1015,109.5 947,168.5" style="fill:#1d0130;stroke:#1d0130;"></polygon><polygon stroke-linejoin="round" stroke-miterlimit="1" stroke-width="1" points="961,1121.5 909,915.5 917,1114.5" style="fill:#1b0030;stroke:#1b0030;"></polygon><polygon stroke-linejoin="round" stroke-miterlimit="1" stroke-width="1" points="1052,519.5 1015,474.5 977,479.5" style="fill:#3d013f;stroke:#3d013f;"></polygon><polygon stroke-linejoin="round" stroke-miterlimit="1" stroke-width="1" points="1052,519.5 977,479.5 925,616.5" style="fill:#440143;stroke:#440143;"></polygon><polygon stroke-linejoin="round" stroke-miterlimit="1" stroke-width="1" points="947,168.5 918,178.5 896,267.5" style="fill:#33013b;stroke:#33013b;"></polygon><polygon stroke-linejoin="round" stroke-miterlimit="1" stroke-width="1" points="1015,109.5 878,76.5 947,168.5" style="fill:#2e0138;stroke:#2e0138;"></polygon><polygon stroke-linejoin="round" stroke-miterlimit="1" stroke-width="1" points="1015,109.5 927,29.5 878,76.5" style="fill:#1b0030;stroke:#1b0030;"></polygon><polygon stroke-linejoin="round" stroke-miterlimit="1" stroke-width="1" points="1009,-60.5 961,-155.5 845,-146.5" style="fill:#240133;stroke:#240133;"></polygon><polygon stroke-linejoin="round" stroke-miterlimit="1" stroke-width="1" points="1009,-60.5 845,-146.5 927,29.5" style="fill:#1e0131;stroke:#1e0131;"></polygon><polygon stroke-linejoin="round" stroke-miterlimit="1" stroke-width="1" points="917,1114.5 604,974.5 349,1089.5" style="fill:#220133;stroke:#220133;"></polygon><polygon stroke-linejoin="round" stroke-miterlimit="1" stroke-width="1" points="927,29.5 845,-146.5 806,-46.5" style="fill:#1d0130;stroke:#1d0130;"></polygon><polygon stroke-linejoin="round" stroke-miterlimit="1" stroke-width="1" points="947,168.5 878,76.5 879,133.5" style="fill:#2c0137;stroke:#2c0137;"></polygon><polygon stroke-linejoin="round" stroke-miterlimit="1" stroke-width="1" points="977,479.5 892,397.5 887,399.5" style="fill:#1b0030;stroke:#1b0030;"></polygon><polygon stroke-linejoin="round" stroke-miterlimit="1" stroke-width="1" points="977,479.5 864,605.5 925,616.5" style="fill:#3d013f;stroke:#3d013f;"></polygon><polygon stroke-linejoin="round" stroke-miterlimit="1" stroke-width="1" points="977,479.5 887,399.5 864,605.5" style="fill:#37013c;stroke:#37013c;"></polygon><polygon stroke-linejoin="round" stroke-miterlimit="1" stroke-width="1" points="925,616.5 864,605.5 869,779.5" style="fill:#2c0137;stroke:#2c0137;"></polygon><polygon stroke-linejoin="round" stroke-miterlimit="1" stroke-width="1" points="917,1114.5 909,915.5 714,961.5" style="fill:#2e0138;stroke:#2e0138;"></polygon><polygon stroke-linejoin="round" stroke-miterlimit="1" stroke-width="1" points="947,168.5 879,133.5 918,178.5" style="fill:#300139;stroke:#300139;"></polygon><polygon stroke-linejoin="round" stroke-miterlimit="1" stroke-width="1" points="869,779.5 864,605.5 750,696.5" style="fill:#37013d;stroke:#37013d;"></polygon><polygon stroke-linejoin="round" stroke-miterlimit="1" stroke-width="1" points="896,267.5 887,399.5 892,397.5" style="fill:#1b0030;stroke:#1b0030;"></polygon><polygon stroke-linejoin="round" stroke-miterlimit="1" stroke-width="1" points="917,1114.5 714,961.5 604,974.5" style="fill:#1b0030;stroke:#1b0030;"></polygon><polygon stroke-linejoin="round" stroke-miterlimit="1" stroke-width="1" points="927,29.5 816,65.5 878,76.5" style="fill:#3b013f;stroke:#3b013f;"></polygon><polygon stroke-linejoin="round" stroke-miterlimit="1" stroke-width="1" points="927,29.5 806,-46.5 816,65.5" style="fill:#250134;stroke:#250134;"></polygon><polygon stroke-linejoin="round" stroke-miterlimit="1" stroke-width="1" points="887,399.5 687,369.5 864,605.5" style="fill:#2a0136;stroke:#2a0136;"></polygon><polygon stroke-linejoin="round" stroke-miterlimit="1" stroke-width="1" points="896,267.5 738,323.5 887,399.5" style="fill:#2c0137;stroke:#2c0137;"></polygon><polygon stroke-linejoin="round" stroke-miterlimit="1" stroke-width="1" points="909,915.5 869,779.5 725,914.5" style="fill:#290136;stroke:#290136;"></polygon><polygon stroke-linejoin="round" stroke-miterlimit="1" stroke-width="1" points="909,915.5 725,914.5 714,961.5" style="fill:#1b0030;stroke:#1b0030;"></polygon><polygon stroke-linejoin="round" stroke-miterlimit="1" stroke-width="1" points="918,178.5 879,133.5 896,267.5" style="fill:#3a013e;stroke:#3a013e;"></polygon><polygon stroke-linejoin="round" stroke-miterlimit="1" stroke-width="1" points="896,267.5 879,133.5 728,162.5" style="fill:#250134;stroke:#250134;"></polygon><polygon stroke-linejoin="round" stroke-miterlimit="1" stroke-width="1" points="864,605.5 687,369.5 735,663.5" style="fill:#290136;stroke:#290136;"></polygon><polygon stroke-linejoin="round" stroke-miterlimit="1" stroke-width="1" points="896,267.5 728,162.5 738,323.5" style="fill:#250134;stroke:#250134;"></polygon><polygon stroke-linejoin="round" stroke-miterlimit="1" stroke-width="1" points="879,133.5 878,76.5 816,65.5" style="fill:#2b0137;stroke:#2b0137;"></polygon><polygon stroke-linejoin="round" stroke-miterlimit="1" stroke-width="1" points="887,399.5 738,323.5 687,369.5" style="fill:#300139;stroke:#300139;"></polygon><polygon stroke-linejoin="round" stroke-miterlimit="1" stroke-width="1" points="735,663.5 687,369.5 579,514.5" style="fill:#300139;stroke:#300139;"></polygon><polygon stroke-linejoin="round" stroke-miterlimit="1" stroke-width="1" points="864,605.5 735,663.5 750,696.5" style="fill:#2c0138;stroke:#2c0138;"></polygon><polygon stroke-linejoin="round" stroke-miterlimit="1" stroke-width="1" points="879,133.5 816,65.5 728,162.5" style="fill:#1f0131;stroke:#1f0131;"></polygon><polygon stroke-linejoin="round" stroke-miterlimit="1" stroke-width="1" points="869,779.5 750,696.5 725,914.5" style="fill:#210132;stroke:#210132;"></polygon><polygon stroke-linejoin="round" stroke-miterlimit="1" stroke-width="1" points="845,-146.5 724,-61.5 806,-46.5" style="fill:#2a0136;stroke:#2a0136;"></polygon><polygon stroke-linejoin="round" stroke-miterlimit="1" stroke-width="1" points="845,-146.5 640,-149.5 724,-61.5" style="fill:#1e0131;stroke:#1e0131;"></polygon><polygon stroke-linejoin="round" stroke-miterlimit="1" stroke-width="1" points="735,663.5 579,514.5 694,666.5" style="fill:#2b0137;stroke:#2b0137;"></polygon><polygon stroke-linejoin="round" stroke-miterlimit="1" stroke-width="1" points="816,65.5 806,-46.5 724,-61.5" style="fill:#280135;stroke:#280135;"></polygon><polygon stroke-linejoin="round" stroke-miterlimit="1" stroke-width="1" points="816,65.5 724,-61.5 728,162.5" style="fill:#240134;stroke:#240134;"></polygon><polygon stroke-linejoin="round" stroke-miterlimit="1" stroke-width="1" points="725,914.5 633,696.5 632,903.5" style="fill:#2a0136;stroke:#2a0136;"></polygon><polygon stroke-linejoin="round" stroke-miterlimit="1" stroke-width="1" points="750,696.5 633,696.5 725,914.5" style="fill:#210132;stroke:#210132;"></polygon><polygon stroke-linejoin="round" stroke-miterlimit="1" stroke-width="1" points="346,-155.5 -118,-155.5 168,-115.5" style="fill:#290136;stroke:#290136;"></polygon><polygon stroke-linejoin="round" stroke-miterlimit="1" stroke-width="1" points="687,369.5 599,399.5 579,514.5" style="fill:#1b0030;stroke:#1b0030;"></polygon><polygon stroke-linejoin="round" stroke-miterlimit="1" stroke-width="1" points="724,-61.5 569,118.5 577,128.5" style="fill:#1b0030;stroke:#1b0030;"></polygon><polygon stroke-linejoin="round" stroke-miterlimit="1" stroke-width="1" points="728,162.5 724,-61.5 577,128.5" style="fill:#2b0137;stroke:#2b0137;"></polygon><polygon stroke-linejoin="round" stroke-miterlimit="1" stroke-width="1" points="738,323.5 538,346.5 687,369.5" style="fill:#250134;stroke:#250134;"></polygon><polygon stroke-linejoin="round" stroke-miterlimit="1" stroke-width="1" points="738,323.5 577,128.5 538,346.5" style="fill:#260134;stroke:#260134;"></polygon><polygon stroke-linejoin="round" stroke-miterlimit="1" stroke-width="1" points="738,323.5 728,162.5 577,128.5" style="fill:#240134;stroke:#240134;"></polygon><polygon stroke-linejoin="round" stroke-miterlimit="1" stroke-width="1" points="750,696.5 694,666.5 633,696.5" style="fill:#2a0137;stroke:#2a0137;"></polygon><polygon stroke-linejoin="round" stroke-miterlimit="1" stroke-width="1" points="750,696.5 735,663.5 694,666.5" style="fill:#420142;stroke:#420142;"></polygon><polygon stroke-linejoin="round" stroke-miterlimit="1" stroke-width="1" points="640,-149.5 515,-155.5 612,-141.5" style="fill:#250134;stroke:#250134;"></polygon><polygon stroke-linejoin="round" stroke-miterlimit="1" stroke-width="1" points="724,-61.5 554,-86.5 569,118.5" style="fill:#290136;stroke:#290136;"></polygon><polygon stroke-linejoin="round" stroke-miterlimit="1" stroke-width="1" points="694,666.5 579,514.5 553,629.5" style="fill:#1f0131;stroke:#1f0131;"></polygon><polygon stroke-linejoin="round" stroke-miterlimit="1" stroke-width="1" points="725,914.5 632,903.5 714,961.5" style="fill:#2d0138;stroke:#2d0138;"></polygon><polygon stroke-linejoin="round" stroke-miterlimit="1" stroke-width="1" points="724,-61.5 640,-149.5 612,-141.5" style="fill:#2a0136;stroke:#2a0136;"></polygon><polygon stroke-linejoin="round" stroke-miterlimit="1" stroke-width="1" points="724,-61.5 612,-141.5 554,-86.5" style="fill:#32013a;stroke:#32013a;"></polygon><polygon stroke-linejoin="round" stroke-miterlimit="1" stroke-width="1" points="714,961.5 632,903.5 604,974.5" style="fill:#1b0030;stroke:#1b0030;"></polygon><polygon stroke-linejoin="round" stroke-miterlimit="1" stroke-width="1" points="633,696.5 502,825.5 632,903.5" style="fill:#250134;stroke:#250134;"></polygon><polygon stroke-linejoin="round" stroke-miterlimit="1" stroke-width="1" points="687,369.5 538,346.5 599,399.5" style="fill:#230133;stroke:#230133;"></polygon><polygon stroke-linejoin="round" stroke-miterlimit="1" stroke-width="1" points="694,666.5 553,629.5 633,696.5" style="fill:#1b0030;stroke:#1b0030;"></polygon><polygon stroke-linejoin="round" stroke-miterlimit="1" stroke-width="1" points="632,903.5 502,825.5 545,915.5" style="fill:#230133;stroke:#230133;"></polygon><polygon stroke-linejoin="round" stroke-miterlimit="1" stroke-width="1" points="633,696.5 487,786.5 502,825.5" style="fill:#35013c;stroke:#35013c;"></polygon><polygon stroke-linejoin="round" stroke-miterlimit="1" stroke-width="1" points="604,974.5 368,985.5 349,1089.5" style="fill:#260135;stroke:#260135;"></polygon><polygon stroke-linejoin="round" stroke-miterlimit="1" stroke-width="1" points="632,903.5 545,915.5 604,974.5" style="fill:#230133;stroke:#230133;"></polygon><polygon stroke-linejoin="round" stroke-miterlimit="1" stroke-width="1" points="633,696.5 553,629.5 487,786.5" style="fill:#2e0138;stroke:#2e0138;"></polygon><polygon stroke-linejoin="round" stroke-miterlimit="1" stroke-width="1" points="569,118.5 554,-86.5 490,-87.5" style="fill:#260135;stroke:#260135;"></polygon><polygon stroke-linejoin="round" stroke-miterlimit="1" stroke-width="1" points="577,128.5 473,360.5 538,346.5" style="fill:#3b013f;stroke:#3b013f;"></polygon><polygon stroke-linejoin="round" stroke-miterlimit="1" stroke-width="1" points="579,514.5 491,569.5 553,629.5" style="fill:#200132;stroke:#200132;"></polygon><polygon stroke-linejoin="round" stroke-miterlimit="1" stroke-width="1" points="599,399.5 495,530.5 579,514.5" style="fill:#32013a;stroke:#32013a;"></polygon><polygon stroke-linejoin="round" stroke-miterlimit="1" stroke-width="1" points="604,974.5 545,915.5 368,985.5" style="fill:#290136;stroke:#290136;"></polygon><polygon stroke-linejoin="round" stroke-miterlimit="1" stroke-width="1" points="612,-141.5 515,-155.5 554,-86.5" style="fill:#2a0136;stroke:#2a0136;"></polygon><polygon stroke-linejoin="round" stroke-miterlimit="1" stroke-width="1" points="599,399.5 473,360.5 495,530.5" style="fill:#1d0130;stroke:#1d0130;"></polygon><polygon stroke-linejoin="round" stroke-miterlimit="1" stroke-width="1" points="569,118.5 490,-87.5 403,-61.5" style="fill:#250134;stroke:#250134;"></polygon><polygon stroke-linejoin="round" stroke-miterlimit="1" stroke-width="1" points="577,128.5 569,118.5 473,360.5" style="fill:#680254;stroke:#680254;"></polygon><polygon stroke-linejoin="round" stroke-miterlimit="1" stroke-width="1" points="599,399.5 538,346.5 473,360.5" style="fill:#2e0138;stroke:#2e0138;"></polygon><polygon stroke-linejoin="round" stroke-miterlimit="1" stroke-width="1" points="553,629.5 402,710.5 487,786.5" style="fill:#270135;stroke:#270135;"></polygon><polygon stroke-linejoin="round" stroke-miterlimit="1" stroke-width="1" points="569,118.5 202,94.5 473,360.5" style="fill:#230133;stroke:#230133;"></polygon><polygon stroke-linejoin="round" stroke-miterlimit="1" stroke-width="1" points="579,514.5 495,530.5 491,569.5" style="fill:#280136;stroke:#280136;"></polygon><polygon stroke-linejoin="round" stroke-miterlimit="1" stroke-width="1" points="569,118.5 403,-61.5 202,94.5" style="fill:#260134;stroke:#260134;"></polygon><polygon stroke-linejoin="round" stroke-miterlimit="1" stroke-width="1" points="553,629.5 432,602.5 402,710.5" style="fill:#2b0137;stroke:#2b0137;"></polygon><polygon stroke-linejoin="round" stroke-miterlimit="1" stroke-width="1" points="554,-86.5 515,-155.5 490,-87.5" style="fill:#2c0137;stroke:#2c0137;"></polygon><polygon stroke-linejoin="round" stroke-miterlimit="1" stroke-width="1" points="553,629.5 491,569.5 432,602.5" style="fill:#220133;stroke:#220133;"></polygon><polygon stroke-linejoin="round" stroke-miterlimit="1" stroke-width="1" points="545,915.5 502,825.5 368,985.5" style="fill:#240134;stroke:#240134;"></polygon><polygon stroke-linejoin="round" stroke-miterlimit="1" stroke-width="1" points="473,360.5 202,94.5 152,299.5" style="fill:#200132;stroke:#200132;"></polygon><polygon stroke-linejoin="round" stroke-miterlimit="1" stroke-width="1" points="495,530.5 473,360.5 327,488.5" style="fill:#200132;stroke:#200132;"></polygon><polygon stroke-linejoin="round" stroke-miterlimit="1" stroke-width="1" points="515,-155.5 346,-155.5 490,-87.5" style="fill:#1d0130;stroke:#1d0130;"></polygon><polygon stroke-linejoin="round" stroke-miterlimit="1" stroke-width="1" points="490,-87.5 346,-155.5 403,-61.5" style="fill:#1b0030;stroke:#1b0030;"></polygon><polygon stroke-linejoin="round" stroke-miterlimit="1" stroke-width="1" points="502,825.5 487,786.5 283,840.5" style="fill:#1d0130;stroke:#1d0130;"></polygon><polygon stroke-linejoin="round" stroke-miterlimit="1" stroke-width="1" points="502,825.5 283,840.5 368,985.5" style="fill:#230133;stroke:#230133;"></polygon><polygon stroke-linejoin="round" stroke-miterlimit="1" stroke-width="1" points="495,530.5 432,602.5 491,569.5" style="fill:#1b0030;stroke:#1b0030;"></polygon><polygon stroke-linejoin="round" stroke-miterlimit="1" stroke-width="1" points="495,530.5 327,488.5 432,602.5" style="fill:#1b0030;stroke:#1b0030;"></polygon><polygon stroke-linejoin="round" stroke-miterlimit="1" stroke-width="1" points="487,786.5 402,710.5 283,840.5" style="fill:#230133;stroke:#230133;"></polygon><polygon stroke-linejoin="round" stroke-miterlimit="1" stroke-width="1" points="473,360.5 152,299.5 318,483.5" style="fill:#200132;stroke:#200132;"></polygon><polygon stroke-linejoin="round" stroke-miterlimit="1" stroke-width="1" points="473,360.5 318,483.5 327,488.5" style="fill:#1b0030;stroke:#1b0030;"></polygon><polygon stroke-linejoin="round" stroke-miterlimit="1" stroke-width="1" points="346,-155.5 168,-115.5 276,-122.5" style="fill:#1b0030;stroke:#1b0030;"></polygon><polygon stroke-linejoin="round" stroke-miterlimit="1" stroke-width="1" points="402,710.5 296,707.5 283,840.5" style="fill:#1f0131;stroke:#1f0131;"></polygon><polygon stroke-linejoin="round" stroke-miterlimit="1" stroke-width="1" points="432,602.5 293,595.5 402,710.5" style="fill:#280136;stroke:#280136;"></polygon><polygon stroke-linejoin="round" stroke-miterlimit="1" stroke-width="1" points="432,602.5 327,488.5 293,595.5" style="fill:#230133;stroke:#230133;"></polygon><polygon stroke-linejoin="round" stroke-miterlimit="1" stroke-width="1" points="276,-122.5 161,-20.5 202,94.5" style="fill:#1b0030;stroke:#1b0030;"></polygon><polygon stroke-linejoin="round" stroke-miterlimit="1" stroke-width="1" points="402,710.5 293,595.5 296,707.5" style="fill:#2a0137;stroke:#2a0137;"></polygon><polygon stroke-linejoin="round" stroke-miterlimit="1" stroke-width="1" points="403,-61.5 346,-155.5 276,-122.5" style="fill:#1b0030;stroke:#1b0030;"></polygon><polygon stroke-linejoin="round" stroke-miterlimit="1" stroke-width="1" points="403,-61.5 276,-122.5 202,94.5" style="fill:#2c0137;stroke:#2c0137;"></polygon><polygon stroke-linejoin="round" stroke-miterlimit="1" stroke-width="1" points="318,483.5 152,299.5 197,474.5" style="fill:#240134;stroke:#240134;"></polygon><polygon stroke-linejoin="round" stroke-miterlimit="1" stroke-width="1" points="368,985.5 284,1050.5 349,1089.5" style="fill:#1b0030;stroke:#1b0030;"></polygon><polygon stroke-linejoin="round" stroke-miterlimit="1" stroke-width="1" points="368,985.5 283,840.5 284,1050.5" style="fill:#220133;stroke:#220133;"></polygon><polygon stroke-linejoin="round" stroke-miterlimit="1" stroke-width="1" points="197,474.5 152,299.5 128,376.5" style="fill:#1b0030;stroke:#1b0030;"></polygon><polygon stroke-linejoin="round" stroke-miterlimit="1" stroke-width="1" points="327,488.5 318,483.5 293,595.5" style="fill:#1b0030;stroke:#1b0030;"></polygon><polygon stroke-linejoin="round" stroke-miterlimit="1" stroke-width="1" points="349,1089.5 284,1050.5 182,1121.5" style="fill:#1b0030;stroke:#1b0030;"></polygon><polygon stroke-linejoin="round" stroke-miterlimit="1" stroke-width="1" points="284,1050.5 283,840.5 176,1081.5" style="fill:#2c0137;stroke:#2c0137;"></polygon><polygon stroke-linejoin="round" stroke-miterlimit="1" stroke-width="1" points="318,483.5 189,567.5 293,595.5" style="fill:#1b0030;stroke:#1b0030;"></polygon><polygon stroke-linejoin="round" stroke-miterlimit="1" stroke-width="1" points="318,483.5 197,474.5 189,567.5" style="fill:#2d0138;stroke:#2d0138;"></polygon><polygon stroke-linejoin="round" stroke-miterlimit="1" stroke-width="1" points="283,840.5 27,949.5 176,1081.5" style="fill:#240133;stroke:#240133;"></polygon><polygon stroke-linejoin="round" stroke-miterlimit="1" stroke-width="1" points="296,707.5 156,740.5 283,840.5" style="fill:#260135;stroke:#260135;"></polygon><polygon stroke-linejoin="round" stroke-miterlimit="1" stroke-width="1" points="202,94.5 102,149.5 152,299.5" style="fill:#1b0030;stroke:#1b0030;"></polygon><polygon stroke-linejoin="round" stroke-miterlimit="1" stroke-width="1" points="276,-122.5 168,-115.5 161,-20.5" style="fill:#2a0137;stroke:#2a0137;"></polygon><polygon stroke-linejoin="round" stroke-miterlimit="1" stroke-width="1" points="284,1050.5 176,1081.5 182,1121.5" style="fill:#240134;stroke:#240134;"></polygon><polygon stroke-linejoin="round" stroke-miterlimit="1" stroke-width="1" points="296,707.5 293,595.5 189,567.5" style="fill:#2a0136;stroke:#2a0136;"></polygon><polygon stroke-linejoin="round" stroke-miterlimit="1" stroke-width="1" points="296,707.5 189,567.5 156,740.5" style="fill:#1b0030;stroke:#1b0030;"></polygon><polygon stroke-linejoin="round" stroke-miterlimit="1" stroke-width="1" points="283,840.5 156,740.5 27,949.5" style="fill:#1f0131;stroke:#1f0131;"></polygon><polygon stroke-linejoin="round" stroke-miterlimit="1" stroke-width="1" points="189,567.5 54,708.5 156,740.5" style="fill:#230133;stroke:#230133;"></polygon><polygon stroke-linejoin="round" stroke-miterlimit="1" stroke-width="1" points="189,567.5 30,619.5 54,708.5" style="fill:#1b0030;stroke:#1b0030;"></polygon><polygon stroke-linejoin="round" stroke-miterlimit="1" stroke-width="1" points="197,474.5 128,376.5 71,442.5" style="fill:#2f0139;stroke:#2f0139;"></polygon><polygon stroke-linejoin="round" stroke-miterlimit="1" stroke-width="1" points="197,474.5 71,442.5 85,483.5" style="fill:#290136;stroke:#290136;"></polygon><polygon stroke-linejoin="round" stroke-miterlimit="1" stroke-width="1" points="197,474.5 85,483.5 189,567.5" style="fill:#1b0030;stroke:#1b0030;"></polygon><polygon stroke-linejoin="round" stroke-miterlimit="1" stroke-width="1" points="202,94.5 161,-20.5 102,149.5" style="fill:#1b0030;stroke:#1b0030;"></polygon><polygon stroke-linejoin="round" stroke-miterlimit="1" stroke-width="1" points="156,740.5 54,708.5 27,949.5" style="fill:#250134;stroke:#250134;"></polygon><polygon stroke-linejoin="round" stroke-miterlimit="1" stroke-width="1" points="189,567.5 85,483.5 30,619.5" style="fill:#270135;stroke:#270135;"></polygon><polygon stroke-linejoin="round" stroke-miterlimit="1" stroke-width="1" points="32,1121.5 27,949.5 -17,1014.5" style="fill:#32013a;stroke:#32013a;"></polygon><polygon stroke-linejoin="round" stroke-miterlimit="1" stroke-width="1" points="176,1081.5 27,949.5 32,1121.5" style="fill:#230133;stroke:#230133;"></polygon><polygon stroke-linejoin="round" stroke-miterlimit="1" stroke-width="1" points="182,1121.5 176,1081.5 32,1121.5" style="fill:#270135;stroke:#270135;"></polygon><polygon stroke-linejoin="round" stroke-miterlimit="1" stroke-width="1" points="161,-20.5 -57,102.5 102,149.5" style="fill:#290136;stroke:#290136;"></polygon><polygon stroke-linejoin="round" stroke-miterlimit="1" stroke-width="1" points="168,-115.5 -114,-52.5 161,-20.5" style="fill:#1b0030;stroke:#1b0030;"></polygon><polygon stroke-linejoin="round" stroke-miterlimit="1" stroke-width="1" points="168,-115.5 -118,-155.5 -114,-52.5" style="fill:#1e0131;stroke:#1e0131;"></polygon><polygon stroke-linejoin="round" stroke-miterlimit="1" stroke-width="1" points="161,-20.5 -114,-52.5 -57,102.5" style="fill:#220132;stroke:#220132;"></polygon><polygon stroke-linejoin="round" stroke-miterlimit="1" stroke-width="1" points="-57,102.5 -114,-52.5 -119,6.5" style="fill:#1b0030;stroke:#1b0030;"></polygon><polygon stroke-linejoin="round" stroke-miterlimit="1" stroke-width="1" points="152,299.5 102,149.5 -98,286.5" style="fill:#200132;stroke:#200132;"></polygon><polygon stroke-linejoin="round" stroke-miterlimit="1" stroke-width="1" points="152,299.5 -98,286.5 128,376.5" style="fill:#240134;stroke:#240134;"></polygon><polygon stroke-linejoin="round" stroke-miterlimit="1" stroke-width="1" points="-57,102.5 -119,6.5 -94,68.5" style="fill:#1b0030;stroke:#1b0030;"></polygon><polygon stroke-linejoin="round" stroke-miterlimit="1" stroke-width="1" points="54,708.5 -7,944.5 27,949.5" style="fill:#3d013f;stroke:#3d013f;"></polygon><polygon stroke-linejoin="round" stroke-miterlimit="1" stroke-width="1" points="128,376.5 -78,410.5 71,442.5" style="fill:#280136;stroke:#280136;"></polygon><polygon stroke-linejoin="round" stroke-miterlimit="1" stroke-width="1" points="128,376.5 -98,286.5 -78,410.5" style="fill:#1d0130;stroke:#1d0130;"></polygon><polygon stroke-linejoin="round" stroke-miterlimit="1" stroke-width="1" points="102,149.5 -57,102.5 -98,286.5" style="fill:#240134;stroke:#240134;"></polygon><polygon stroke-linejoin="round" stroke-miterlimit="1" stroke-width="1" points="30,619.5 -119,516.5 -119,532.5" style="fill:#400141;stroke:#400141;"></polygon><polygon stroke-linejoin="round" stroke-miterlimit="1" stroke-width="1" points="85,483.5 -119,516.5 30,619.5" style="fill:#250134;stroke:#250134;"></polygon><polygon stroke-linejoin="round" stroke-miterlimit="1" stroke-width="1" points="85,483.5 71,442.5 -119,491.5" style="fill:#200132;stroke:#200132;"></polygon><polygon stroke-linejoin="round" stroke-miterlimit="1" stroke-width="1" points="85,483.5 -119,491.5 -119,516.5" style="fill:#250134;stroke:#250134;"></polygon><polygon stroke-linejoin="round" stroke-miterlimit="1" stroke-width="1" points="71,442.5 -78,410.5 -119,491.5" style="fill:#200132;stroke:#200132;"></polygon><polygon stroke-linejoin="round" stroke-miterlimit="1" stroke-width="1" points="-78,410.5 -119,483.5 -119,491.5" style="fill:#1b0030;stroke:#1b0030;"></polygon><polygon stroke-linejoin="round" stroke-miterlimit="1" stroke-width="1" points="30,619.5 -119,532.5 -119,576.5" style="fill:#290136;stroke:#290136;"></polygon><polygon stroke-linejoin="round" stroke-miterlimit="1" stroke-width="1" points="54,708.5 30,619.5 -119,576.5" style="fill:#1b0030;stroke:#1b0030;"></polygon><polygon stroke-linejoin="round" stroke-miterlimit="1" stroke-width="1" points="54,708.5 -119,576.5 -7,944.5" style="fill:#1b0030;stroke:#1b0030;"></polygon><polygon stroke-linejoin="round" stroke-miterlimit="1" stroke-width="1" points="27,949.5 -7,944.5 -17,1014.5" style="fill:#38013d;stroke:#38013d;"></polygon><polygon stroke-linejoin="round" stroke-miterlimit="1" stroke-width="1" points="32,1121.5 -17,1014.5 -96,1121.5" style="fill:#250134;stroke:#250134;"></polygon><polygon stroke-linejoin="round" stroke-miterlimit="1" stroke-width="1" points="-114,-52.5 -119,-43.5 -119,6.5" style="fill:#4a0245;stroke:#4a0245;"></polygon><polygon stroke-linejoin="round" stroke-miterlimit="1" stroke-width="1" points="-7,944.5 -119,1121.5 -17,1014.5" style="fill:#1e0131;stroke:#1e0131;"></polygon><polygon stroke-linejoin="round" stroke-miterlimit="1" stroke-width="1" points="-7,944.5 -119,576.5 -119,1121.5" style="fill:#1b0030;stroke:#1b0030;"></polygon><polygon stroke-linejoin="round" stroke-miterlimit="1" stroke-width="1" points="-57,102.5 -119,85.5 -98,286.5" style="fill:#210132;stroke:#210132;"></polygon><polygon stroke-linejoin="round" stroke-miterlimit="1" stroke-width="1" points="-17,1014.5 -119,1121.5 -118,1121.5" style="fill:#1b0030;stroke:#1b0030;"></polygon><polygon stroke-linejoin="round" stroke-miterlimit="1" stroke-width="1" points="-17,1014.5 -118,1121.5 -96,1121.5" style="fill:#460244;stroke:#460244;"></polygon><polygon stroke-linejoin="round" stroke-miterlimit="1" stroke-width="1" points="-57,102.5 -94,68.5 -119,85.5" style="fill:#1b0030;stroke:#1b0030;"></polygon><polygon stroke-linejoin="round" stroke-miterlimit="1" stroke-width="1" points="-114,-52.5 -118,-155.5 -119,-155.5" style="fill:#76035a;stroke:#76035a;"></polygon><polygon stroke-linejoin="round" stroke-miterlimit="1" stroke-width="1" points="-78,410.5 -98,286.5 -119,483.5" style="fill:#2a0136;stroke:#2a0136;"></polygon><polygon stroke-linejoin="round" stroke-miterlimit="1" stroke-width="1" points="-94,68.5 -119,6.5 -119,85.5" style="fill:#36013c;stroke:#36013c;"></polygon><polygon stroke-linejoin="round" stroke-miterlimit="1" stroke-width="1" points="-98,286.5 -119,85.5 -119,483.5" style="fill:#1b0030;stroke:#1b0030;"></polygon><polygon stroke-linejoin="round" stroke-miterlimit="1" stroke-width="1" points="-114,-52.5 -119,-155.5 -119,-43.5" style="fill:#1b0030;stroke:#1b0030;"></polygon></svg>